<svg xmlns="http://www.w3.org/2000/svg" width="51.14" height="48.65" viewBox="0 0 51.14 48.65">
  <g id="clip" transform="translate(-4 -5)">
    <g id="Group_59" data-name="Group 59" transform="translate(4 5)">
      <path id="Path_31" data-name="Path 31" d="M46.806,15.6a14.418,14.418,0,0,0-20.169,0L3.135,39.1a11.011,11.011,0,0,0,15.57,15.571L39.987,33.392A7.084,7.084,0,0,0,29.968,23.373L9.612,43.729a1.851,1.851,0,0,0,2.617,2.617L32.584,25.99a3.385,3.385,0,0,1,4.785,4.786L16.089,52.057A7.31,7.31,0,0,1,5.752,41.72l23.5-23.5a10.722,10.722,0,0,1,15.165,15.16l-23.5,23.5a1.851,1.851,0,1,0,2.609,2.609l23.5-23.5A14.418,14.418,0,0,0,46.806,15.6Z" transform="translate(0 -11.486)"/>
    </g>
  </g>
</svg>
