<svg xmlns="http://www.w3.org/2000/svg" width="42.735" height="42.736" viewBox="0 0 42.735 42.736">
  <g id="link" transform="translate(-1.001 -2.001)">
    <path id="Path_94" data-name="Path 94" d="M14.847,29.651A9.23,9.23,0,0,1,8.3,26.943a1.257,1.257,0,0,1,1.778-1.778,6.75,6.75,0,0,0,9.537,0l9.142-9.142a6.744,6.744,0,0,0-9.537-9.537L11.505,14.2a1.257,1.257,0,0,1-1.778-1.778l7.714-7.714A9.258,9.258,0,0,1,30.534,17.8l-9.142,9.142a9.23,9.23,0,0,1-6.547,2.708Z" transform="translate(10.495 0)" fill="#00ff2b"/>
    <path id="Path_95" data-name="Path 95" d="M10.256,35.651a9.254,9.254,0,0,1-6.547-15.8l9.142-9.142a9.266,9.266,0,0,1,13.092,0,1.257,1.257,0,0,1-1.778,1.778,6.75,6.75,0,0,0-9.537,0L5.487,21.629a6.744,6.744,0,0,0,9.537,9.537l7.714-7.714a1.257,1.257,0,0,1,1.778,1.778L16.8,32.943a9.23,9.23,0,0,1-6.547,2.708Z" transform="translate(0 9.086)" fill="#00ff2b"/>
  </g>
</svg>
