<svg xmlns="http://www.w3.org/2000/svg" width="55.196" height="56.64" viewBox="0 0 55.196 56.64">
  <g id="Group_134" data-name="Group 134" transform="translate(-22.942 -19.035)">
    <g id="Group_3" data-name="Group 3" transform="translate(23.458 36.078)">
      <path id="pencil" d="M-331.61-217.294A5.782,5.782,0,0,0-335.726-219a5.783,5.783,0,0,0-4.116,1.706L-364.8-192.336a.953.953,0,0,0-.226.355l-3.916,10.766a.991.991,0,0,0,.226,1.027.979.979,0,0,0,.692.284,1.021,1.021,0,0,0,.336-.058l10.766-3.916a1.016,1.016,0,0,0,.355-.226l24.958-24.958a5.783,5.783,0,0,0,1.706-4.117,5.783,5.783,0,0,0-1.706-4.117ZM-357.8-185.641l-8.588,3.121,3.121-8.589L-341.6-212.77l5.467,5.467Zm24.8-24.8-1.758,1.758-5.467-5.467,1.751-1.751a3.837,3.837,0,0,1,2.734-1.131A3.837,3.837,0,0,1-333-215.9a3.836,3.836,0,0,1,1.131,2.734,3.842,3.842,0,0,1-1.124,2.727Z" transform="translate(369.001 219)" stroke="#000" stroke-width="1"/>
    </g>
    <g id="Group_10" data-name="Group 10" transform="translate(55.623 19.217)">
      <g id="Group_2" data-name="Group 2" transform="translate(22.342 3.06) rotate(99)">
        <path id="Path_6" data-name="Path 6" d="M6.186.014a5.264,5.264,0,0,0-1.34.073A6.169,6.169,0,0,0,2.771.823a5.645,5.645,0,0,0-.915,9.044.359.359,0,1,0,.482-.523A4.9,4.9,0,0,1,6.734.856l1.095.172A.376.376,0,0,0,7.992.815a.441.441,0,0,0,0-.155A.526.526,0,0,0,7.943.545,4.6,4.6,0,0,0,6.186.014Z" transform="translate(11.325 8.812)" stroke="#000" stroke-width="0.3"/>
        <path id="Path_7" data-name="Path 7" d="M9.307.025A7.537,7.537,0,0,0,7.3.131,9.083,9.083,0,0,0,4.168,1.242,8.5,8.5,0,0,0,2.8,14.853a.544.544,0,0,0,.719-.817A7.435,7.435,0,0,1,10.132,1.258l1.634.253A.506.506,0,0,0,12,1.185a.432.432,0,0,0,0-.22.539.539,0,0,0-.074-.18A7.173,7.173,0,0,0,9.307.025Z" transform="translate(5.697 4.25)" stroke="#000" stroke-width="0.3"/>
        <path id="Path_8" data-name="Path 8" d="M12.161.035A9.852,9.852,0,0,0,9.53.166,12.082,12.082,0,0,0,5.445,1.612,11.07,11.07,0,0,0,3.672,19.381a.686.686,0,0,0,.972-.049.694.694,0,0,0,0-.98A9.7,9.7,0,0,1,13.264,1.7l2.157.335a.677.677,0,0,0,.31-.425.735.735,0,0,0,0-.286.754.754,0,0,0-.09-.237A9.145,9.145,0,0,0,12.161.035Z" transform="translate(0 0)" stroke="#000" stroke-width="0.3"/>
      </g>
    </g>
  </g>
</svg>
