<svg xmlns="http://www.w3.org/2000/svg" width="58" height="43" viewBox="0 0 58 43">
  <g id="Group_121" data-name="Group 121" transform="translate(-72 -1111)">
    <g id="Group_120" data-name="Group 120" transform="translate(72 1111)">
      <g id="Rectangle_36" data-name="Rectangle 36" fill="none" stroke="#000" stroke-width="4">
        <path d="M15,0H43A15,15,0,0,1,58,15V28A15,15,0,0,1,43,43H0a0,0,0,0,1,0,0V15A15,15,0,0,1,15,0Z" stroke="none"/>
        <path d="M15,2H43A13,13,0,0,1,56,15V28A13,13,0,0,1,43,41H4a2,2,0,0,1-2-2V15A13,13,0,0,1,15,2Z" fill="none"/>
      </g>
      <rect id="Rectangle_37" data-name="Rectangle 37" width="34" height="3" rx="1.5" transform="translate(10 13)"/>
      <rect id="Rectangle_38" data-name="Rectangle 38" width="28" height="3" rx="1.5" transform="translate(10 20)"/>
      <rect id="Rectangle_39" data-name="Rectangle 39" width="18" height="3" rx="1.5" transform="translate(11 27)"/>
    </g>
  </g>
</svg>
