<svg xmlns="http://www.w3.org/2000/svg" width="44.836" height="46.241" viewBox="0 0 44.836 46.241">
  <g id="Group_145" data-name="Group 145" transform="translate(-1087.586 -980.339)">
    <path id="bullhorn" d="M39.8,5.622C38.612,1.8,37.035,1,35.921,1c-.023,0-.047,0-.072,0a30.573,30.573,0,0,0-6.174,1.61c-6.33,1.989-15.895,5-25.571,5C1.764,7.609,0,10.923,0,15.316S1.764,23.024,4.1,23.024c.757,0,1.515.018,2.268.053l3.42,14.6a3.858,3.858,0,0,0,3.549,2.969h2.695a2.351,2.351,0,0,0,2.069-1.09,2.753,2.753,0,0,0,.123-2.469L12.938,23.764a115.832,115.832,0,0,1,16.736,4.255,30.73,30.73,0,0,0,6.174,1.61l.072,0c1.112,0,2.689-.8,3.877-4.622a34.037,34.037,0,0,0,1.254-9.692A34.037,34.037,0,0,0,39.8,5.625Zm-6.956,9.692c0-1.13.045-2.235.131-3.294,1.053.115,1.921,1.577,1.921,3.294s-.866,3.182-1.921,3.294C32.887,17.549,32.842,16.444,32.842,15.314Zm-30.788,0c0-3.361,1.215-5.505,2.053-5.505a56.1,56.1,0,0,0,6.913-.449,21.8,21.8,0,0,0-.755,5.955,21.718,21.718,0,0,0,.755,5.955,56.1,56.1,0,0,0-6.913-.449C3.269,20.819,2.054,18.675,2.054,15.314ZM16.341,37.943a.561.561,0,0,1,.053.392c-.025.04-.142.1-.357.1H13.343a1.793,1.793,0,0,1-1.558-1.3L8.525,23.218c.688.059,1.373.13,2.053.214l5.764,14.512ZM13.32,21.6a17.706,17.706,0,0,1-1-6.283,17.386,17.386,0,0,1,1-6.281,117.49,117.49,0,0,0,16.934-4.31c.852-.269,1.665-.524,2.4-.747a14.984,14.984,0,0,0-.612,1.645,34.037,34.037,0,0,0-1.254,9.692,34.037,34.037,0,0,0,1.254,9.692,14.984,14.984,0,0,0,.612,1.645c-.739-.222-1.552-.478-2.4-.747a117.852,117.852,0,0,0-16.934-4.31ZM37.85,24.31c-.766,2.466-1.6,3.116-1.929,3.116s-1.164-.652-1.929-3.116a23.254,23.254,0,0,1-.77-3.515,3.829,3.829,0,0,0,2.619-1.707,6.628,6.628,0,0,0,1.106-3.775,6.639,6.639,0,0,0-1.106-3.775,3.829,3.829,0,0,0-2.619-1.707,23.827,23.827,0,0,1,.77-3.515c.766-2.466,1.6-3.118,1.929-3.118s1.164.652,1.929,3.116a31.66,31.66,0,0,1,1.149,9,31.66,31.66,0,0,1-1.149,9Z" transform="translate(1090.503 984.142)" fill="#00ff2b"/>
    <path id="Path_98" data-name="Path 98" d="M3.253.05A1.468,1.468,0,0,1,4.637,1.665L3.71,59.018a1.631,1.631,0,0,1-1.437,1.694A1.468,1.468,0,0,1,.889,59.1L1.815,1.744A1.631,1.631,0,0,1,3.253.05Z" transform="matrix(0.719, -0.695, 0.695, 0.719, 1086.912, 983.524)" fill="red"/>
  </g>
</svg>
