<svg xmlns="http://www.w3.org/2000/svg" width="44.33" height="33.9" viewBox="0 0 44.33 33.9">
  <g id="Group_139" data-name="Group 139" transform="translate(-647.008 -963.836)">
    <path id="Path_89" data-name="Path 89" d="M8.6,37.9a1.539,1.539,0,0,1-.715-.174A1.654,1.654,0,0,1,7,36.255V6.644a1.65,1.65,0,0,1,.88-1.471,1.566,1.566,0,0,1,1.672.155l19.14,14.806a1.676,1.676,0,0,1,0,2.632L9.552,37.571A1.566,1.566,0,0,1,8.6,37.9Zm1.6-27.967V32.965L25.078,21.449Z" transform="translate(662.008 958.836)" fill="#00ff2b"/>
    <path id="Path_90" data-name="Path 90" d="M8.6,37.9a1.539,1.539,0,0,1-.715-.174A1.654,1.654,0,0,1,7,36.255V6.644a1.65,1.65,0,0,1,.88-1.471,1.566,1.566,0,0,1,1.672.155l19.14,14.806a1.676,1.676,0,0,1,0,2.632L9.552,37.571A1.566,1.566,0,0,1,8.6,37.9Zm1.6-27.967V32.965L25.078,21.449Z" transform="translate(640.008 959.836)" fill="#00ff2b"/>
  </g>
</svg>
