<svg xmlns="http://www.w3.org/2000/svg" width="20.063" height="20.052" viewBox="0 0 20.063 20.052">
  <path id="pencil" d="M-350.78-218.169a2.818,2.818,0,0,0-2.006-.831,2.818,2.818,0,0,0-2.006.831l-12.162,12.162a.464.464,0,0,0-.11.173l-1.908,5.247a.483.483,0,0,0,.11.5.477.477,0,0,0,.337.139.5.5,0,0,0,.164-.028l5.247-1.908a.5.5,0,0,0,.173-.11l12.162-12.162a2.818,2.818,0,0,0,.831-2.006,2.818,2.818,0,0,0-.831-2.006Zm-12.76,15.425-4.185,1.521,1.521-4.185,10.556-10.556,2.664,2.664Zm12.086-12.086-.857.857-2.664-2.664.853-.853a1.87,1.87,0,0,1,1.332-.551,1.87,1.87,0,0,1,1.332.551,1.869,1.869,0,0,1,.551,1.332,1.872,1.872,0,0,1-.548,1.329Z" transform="translate(369.511 219.5)" stroke="#000" stroke-width="1"/>
</svg>
