<svg id="Group_140" data-name="Group 140" xmlns="http://www.w3.org/2000/svg" width="44.33" height="33.9" viewBox="0 0 44.33 33.9">
  <path id="Path_89" data-name="Path 89" d="M27.735,37.9a1.539,1.539,0,0,0,.715-.174,1.654,1.654,0,0,0,.88-1.471V6.644a1.65,1.65,0,0,0-.88-1.471,1.566,1.566,0,0,0-1.672.155L7.638,20.133a1.676,1.676,0,0,0,0,2.632l19.14,14.806A1.566,1.566,0,0,0,27.735,37.9ZM26.14,9.934V32.965L11.252,21.449Z" transform="translate(-7 -5.001)" fill="#00ff2b"/>
  <path id="Path_90" data-name="Path 90" d="M27.735,37.9a1.539,1.539,0,0,0,.715-.174,1.654,1.654,0,0,0,.88-1.471V6.644a1.65,1.65,0,0,0-.88-1.471,1.566,1.566,0,0,0-1.672.155L7.638,20.133a1.676,1.676,0,0,0,0,2.632l19.14,14.806A1.566,1.566,0,0,0,27.735,37.9ZM26.14,9.934V32.965L11.252,21.449Z" transform="translate(15 -4.001)" fill="#00ff2b"/>
</svg>
