<svg xmlns="http://www.w3.org/2000/svg" width="51.909" height="43.713" viewBox="0 0 51.909 43.713">
  <g id="Group_132" data-name="Group 132" transform="translate(-24.177 -28.435)">
    <path id="screen" d="M47.811,2H4.1A4.1,4.1,0,0,0,0,6.1v27.32a4.1,4.1,0,0,0,4.1,4.1h20.49v5.464H15.026a1.366,1.366,0,0,0,0,2.732H36.883a1.366,1.366,0,1,0,0-2.732H27.32V37.517h20.49a4.1,4.1,0,0,0,4.1-4.1V6.1A4.1,4.1,0,0,0,47.811,2Zm1.366,31.418a1.367,1.367,0,0,1-1.366,1.366H4.1a1.367,1.367,0,0,1-1.366-1.366V6.1A1.367,1.367,0,0,1,4.1,4.732H47.811A1.367,1.367,0,0,1,49.177,6.1Z" transform="translate(24.177 26.435)"/>
    <g id="share" transform="translate(40.615 35.607)">
      <circle id="Ellipse_3" data-name="Ellipse 3" cx="2.691" cy="2.691" r="2.691" transform="translate(11.378 0)" fill="rgba(255,255,255,0)" stroke="#000" stroke-miterlimit="10" stroke-width="1"/>
      <path id="Path_9" data-name="Path 9" d="M2.691,0A2.691,2.691,0,1,1,0,2.691,2.691,2.691,0,0,1,2.691,0Z" transform="translate(11.912 15.978)" fill="rgba(255,255,255,0)" stroke="#000" stroke-width="1"/>
      <circle id="Ellipse_5" data-name="Ellipse 5" cx="2.691" cy="2.691" r="2.691" transform="translate(0 8.168)" fill="rgba(255,255,255,0)" stroke="#000" stroke-miterlimit="10" stroke-width="1"/>
      <line id="Line_1" data-name="Line 1" x1="6.9" y2="5.197" transform="translate(5.012 4.299)" fill="none" stroke="#000" stroke-miterlimit="10" stroke-width="1"/>
      <line id="Line_2" data-name="Line 2" x1="7.036" y1="5.07" transform="translate(4.875 12.429)" fill="none" stroke="#000" stroke-miterlimit="10" stroke-width="1"/>
    </g>
  </g>
</svg>
