<svg xmlns="http://www.w3.org/2000/svg" width="39.257" height="39.26" viewBox="0 0 39.257 39.26">
  <path id="bullhorn" d="M38.057,5.578C36.922,1.794,35.415,1,34.349,1c-.022,0-.045,0-.069,0a28.416,28.416,0,0,0-5.9,1.594c-6.053,1.969-15.2,4.949-24.452,4.949C1.687,7.545,0,10.828,0,15.179s1.688,7.633,3.925,7.633c.724,0,1.449.017,2.169.052L9.363,37.32a3.725,3.725,0,0,0,3.394,2.94h2.577a2.228,2.228,0,0,0,1.978-1.08,2.813,2.813,0,0,0,.118-2.445L12.372,23.545a107.675,107.675,0,0,1,16,4.214,28.562,28.562,0,0,0,5.9,1.594l.069,0c1.064,0,2.571-.794,3.708-4.578a34.84,34.84,0,0,0,1.2-9.6,34.84,34.84,0,0,0-1.2-9.6Zm-6.652,9.6c0-1.119.043-2.214.126-3.263,1.007.113,1.837,1.562,1.837,3.263s-.828,3.152-1.837,3.263C31.448,17.39,31.4,16.3,31.4,15.176Zm-29.441,0c0-3.328,1.162-5.452,1.963-5.452a51.825,51.825,0,0,0,6.611-.445,22.314,22.314,0,0,0-.722,5.9,22.233,22.233,0,0,0,.722,5.9,51.825,51.825,0,0,0-6.611-.445C3.126,20.629,1.964,18.5,1.964,15.176ZM15.626,37.588a.574.574,0,0,1,.051.388c-.024.039-.135.1-.342.1H12.759a1.731,1.731,0,0,1-1.49-1.291L8.152,23c.658.059,1.313.129,1.963.212l5.511,14.373ZM12.737,21.4a18.1,18.1,0,0,1-.96-6.222,17.775,17.775,0,0,1,.958-6.22A109.218,109.218,0,0,0,28.928,4.688c.815-.266,1.592-.519,2.3-.739a15.179,15.179,0,0,0-.585,1.629,34.84,34.84,0,0,0-1.2,9.6,34.84,34.84,0,0,0,1.2,9.6,15.178,15.178,0,0,0,.585,1.629c-.707-.22-1.484-.473-2.3-.739A109.555,109.555,0,0,0,12.735,21.4Zm23.457,2.687c-.732,2.443-1.527,3.086-1.845,3.086s-1.113-.646-1.845-3.086a23.738,23.738,0,0,1-.736-3.481,3.653,3.653,0,0,0,2.5-1.69,6.734,6.734,0,0,0,1.058-3.738,6.745,6.745,0,0,0-1.058-3.738,3.653,3.653,0,0,0-2.5-1.69A24.324,24.324,0,0,1,32.5,6.267c.732-2.443,1.527-3.088,1.845-3.088s1.113.646,1.845,3.086a32.408,32.408,0,0,1,1.1,8.909,32.408,32.408,0,0,1-1.1,8.909Z" transform="translate(0.001 -1)" fill="#00ff2b"/>
</svg>
