<svg id="Layer_1" data-name="Layer 1" xmlns="http://www.w3.org/2000/svg" viewBox="0 0 11.68 13.68"><defs><style>.cls-1,.cls-2{stroke:#000;}.cls-1{stroke-width:0.08px;}.cls-2{fill:none;stroke-miterlimit:10;stroke-width:0.71px;}</style></defs><title>ytShare</title><g id="Group_133" data-name="Group 133"><g id="Group_3" data-name="Group 3"><g id="Group_2" data-name="Group 2"><path id="Path_6" data-name="Path 6" class="cls-1" d="M20.56,21.44a1.24,1.24,0,0,0,0-.33,1.61,1.61,0,0,0-.1-.53,1.38,1.38,0,0,0-1.79-.77,1.31,1.31,0,0,0-.36.21.09.09,0,0,0,0,.12.09.09,0,0,0,.12,0s0,0,0,0a1.2,1.2,0,0,1,1.88,1.39l-.08.26a.08.08,0,0,0,0,0h.07A1.05,1.05,0,0,0,20.56,21.44Z" transform="translate(-11.32 -17.05)"/><path id="Path_7" data-name="Path 7" class="cls-1" d="M21.76,21a2,2,0,0,0,0-.49,2.22,2.22,0,0,0-.15-.8A2.08,2.08,0,0,0,19,18.56a1.89,1.89,0,0,0-.53.31.13.13,0,1,0,.17.2h0a1.82,1.82,0,0,1,2.83,2.09l-.12.38a.08.08,0,0,0,.07.07h.1A1.93,1.93,0,0,0,21.76,21Z" transform="translate(-11.32 -17.05)"/><path id="Path_8" data-name="Path 8" class="cls-1" d="M22.89,20.48a2.73,2.73,0,0,0,.07-.64,2.87,2.87,0,0,0-.2-1,2.69,2.69,0,0,0-3.5-1.52,2.42,2.42,0,0,0-.71.42.15.15,0,0,0,0,.23h0a.17.17,0,0,0,.24,0,2.37,2.37,0,0,1,3.69,2.72l-.17.5a.16.16,0,0,0,.09.09s.05,0,.07,0h.06A2.21,2.21,0,0,0,22.89,20.48Z" transform="translate(-11.32 -17.05)"/></g></g><path class="cls-2" d="M21.17,24l-8.42-5.09a.71.71,0,0,0-1.08.61V29.67a.71.71,0,0,0,1.08.6l8.42-5.08A.71.71,0,0,0,21.17,24Z" transform="translate(-11.32 -17.05)"/></g></svg>