<svg id="Layer_1" data-name="Layer 1" xmlns="http://www.w3.org/2000/svg" viewBox="0 0 924.57 182.95"><defs><style>.cls-1{fill:red;}.cls-2{fill:#03071e;stroke:#03071e;stroke-miterlimit:10;stroke-width:3px;}.cls-3{fill:#fff;}</style></defs><title>btlogo</title><rect class="cls-1" width="924.57" height="182.95"/><path class="cls-2" d="M206.6,632.83a1.5,1.5,0,0,1-.57-.36q-7.23-6.5-14.53-12.91a1.85,1.85,0,0,1-.67-1.54q0-14.44,0-28.87c0-.8.16-1.11,1-1.1q6,.08,11.93,0c.88,0,1,.31,1,1.1,0,4.85,0,9.7,0,14.55a2,2,0,0,0,1.45,2.09,1.31,1.31,0,0,0,.27.06l-.06-21.73h-14c-1.78,0-1.84,0-1.56-1.8.94-6.1,4.06-10.61,9.86-13a15.74,15.74,0,0,1,5.68-1.16v-4c-.42-.19-.4-.68-.53-1-2.61-6.79-6-13-11.67-17.83a20.57,20.57,0,0,0-4.85-3h-1c-2,1.56-1.89,3,.43,4.15A21.61,21.61,0,0,1,196.7,554a44.62,44.62,0,0,1,5.47,10.75,19.08,19.08,0,0,0-10.75,6.6A18.53,18.53,0,0,0,187,583.24c0,.79-.28.91-1,.89q-2.56-.06-5.13,0a1.58,1.58,0,0,1-1.47-.74q-8.13-10.89-16.3-21.75c-1.46-1.93-2.49-2-4.06-.18v1.43c5.43,7.23,10.84,14.48,16.32,21.68,3.16,4.16,1.58,3.43,7,3.5,1.27,0,2.55,0,3.82,0,.61,0,.83.16.81.8q-.06,2.21,0,4.41c0,.66-.23.8-.83.79-2.14,0-4.29.05-6.43,0a2.89,2.89,0,0,0-2.87,1.67c-4,7-8.11,13.92-12.13,20.9a2,2,0,0,1-2.21,1.26,5.22,5.22,0,0,0-1.31,0,2,2,0,0,0-1.91,1.34l0,1.25a1.92,1.92,0,0,0,2.08,1.41c1.08,0,2.15-.05,3.22,0a2.51,2.51,0,0,0,2.51-1.43c4.12-7.11,8.29-14.18,12.38-21.31a1.94,1.94,0,0,1,2.05-1.15c1.5.09,3,.06,4.53,0,.68,0,1,.11,1,.9-.06,2.5,0,5,0,7.5a1.73,1.73,0,0,1-.63,1.32c-3.38,3.37-6.73,6.76-10.14,10.09a3,3,0,0,0-1,3.28c1.3,4.91,2.48,9.84,3.69,14.77a2.2,2.2,0,0,0,1.84,1.78c1.78-.24,2.41-1.17,2-2.87-1.11-4.42-2.2-8.85-3.32-13.27a1.6,1.6,0,0,1,.48-1.78c2.29-2.25,4.52-4.55,7-7.11,0,2.4.06,4.44,0,6.48a3.35,3.35,0,0,0,1.3,2.88c5.51,4.84,11,9.73,16.49,14.61a4.39,4.39,0,0,0,1.54,1.08l.36,0Z" transform="translate(-138.23 -509.09)"/><path class="cls-3" d="M265.82,597a23.74,23.74,0,0,1,7,8.17,22.64,22.64,0,0,1,2.63,10.8,23.41,23.41,0,0,1-1.88,9.37,24.9,24.9,0,0,1-5.15,7.65,23.79,23.79,0,0,1-17,7.09H234.63l-7.43-13.94h24.45a5.8,5.8,0,0,0,3-.86,9.43,9.43,0,0,0,2.46-2.11,10.77,10.77,0,0,0,1.66-2.86,8.87,8.87,0,0,0,.62-3.2,9.61,9.61,0,0,0-.62-3.37,8.91,8.91,0,0,0-1.78-2.91,10.09,10.09,0,0,0-2.57-2.06,6.13,6.13,0,0,0-3-.8H222.74V640.1h-16V560h39a23.31,23.31,0,0,1,9.31,1.89,23.88,23.88,0,0,1,12.8,12.8,23.34,23.34,0,0,1,1.89,9.31,22.77,22.77,0,0,1-1,6.92A25.63,25.63,0,0,1,265.82,597Zm-20.11-4.92a6.4,6.4,0,0,0,3-.74,9.62,9.62,0,0,0,2.57-1.94,8.42,8.42,0,0,0,1.77-2.86,10,10,0,0,0,0-7,9.16,9.16,0,0,0-1.77-2.91,9.07,9.07,0,0,0-2.57-2,6.4,6.4,0,0,0-3-.74h-23V592.1Z" transform="translate(-138.23 -509.09)"/><path class="cls-3" d="M343.64,607.07a20.77,20.77,0,0,0,1.43,7.72,19.78,19.78,0,0,0,3.94,6.28,19.46,19.46,0,0,0,5.89,4.29A16.38,16.38,0,0,0,362,627v14a33.9,33.9,0,0,1-13.48-2.68,35.15,35.15,0,0,1-11-7.37,34,34,0,0,1-10.11-24.46V560.11h16.22v47Zm52.8-47V606.5a33.05,33.05,0,0,1-2,11.49,35.81,35.81,0,0,1-5.49,9.83,34.88,34.88,0,0,1-8.28,7.54,35.62,35.62,0,0,1-10.4,4.63l-7.09-13.15a16.08,16.08,0,0,0,6.63-1.88,19.26,19.26,0,0,0,5.43-4.34,20.22,20.22,0,0,0,3.66-6.17,20.89,20.89,0,0,0,1.31-7.38.24.24,0,0,0-.06-.17.21.21,0,0,1-.06-.17c0-.23,0-.26.06-.11s.06,0,.06-.4V560.11Z" transform="translate(-138.23 -509.09)"/><path class="cls-3" d="M529,596.68c.07,1.14.11,2.28.11,3.42a42.21,42.21,0,0,1-3,15.94,40.38,40.38,0,0,1-8.35,13A39,39,0,0,1,489.34,641a40,40,0,0,1-15.94-3.2A40.58,40.58,0,0,1,451.63,616a41.3,41.3,0,0,1,0-31.88,40.66,40.66,0,0,1,21.77-21.77,40.17,40.17,0,0,1,15.94-3.2,39.25,39.25,0,0,1,20.17,5.32,42.13,42.13,0,0,1,14.57,14l-13.37,8.57a25,25,0,0,0-8.74-9.89,22.6,22.6,0,0,0-12.63-3.71,22.09,22.09,0,0,0-9.6,2.11,25.1,25.1,0,0,0-7.77,5.72,28,28,0,0,0,0,37.59,25.1,25.1,0,0,0,7.77,5.72,22.82,22.82,0,0,0,17.37.74,20.8,20.8,0,0,0,6.51-3.89,26.26,26.26,0,0,0,5-5.88,25.53,25.53,0,0,0,3.14-7.49H490l-7.31-14.85h45.94C528.8,594.39,528.91,595.53,529,596.68Z" transform="translate(-138.23 -509.09)"/><path class="cls-3" d="M620.52,560.11v80H604.07V574.05H580.53V560.11Zm2.4,0h21.14v13.94H629.89Z" transform="translate(-138.23 -509.09)"/><path class="cls-3" d="M744.73,613.82a28.08,28.08,0,0,1-5.08,1.82,30.89,30.89,0,0,1-5.71.75q-3.37.17-8.35.11t-12.85,0V640.1H696.63v-80h36.22a26.79,26.79,0,0,1,10.91,2.23,28.91,28.91,0,0,1,8.92,6,28.59,28.59,0,0,1,6.05,9,27.63,27.63,0,0,1,2.23,11,26.87,26.87,0,0,1-4.51,15.31A27.93,27.93,0,0,1,744.73,613.82Zm-32-13.37h20.11a11.74,11.74,0,0,0,8.69-3.6q3.54-3.6,3.54-9.66a12.77,12.77,0,0,0-1-4.86,14.52,14.52,0,0,0-2.63-4.17,12.8,12.8,0,0,0-3.89-2.91,10.73,10.73,0,0,0-4.74-1.09H712.74v26.29ZM762.9,640.1H742.56L730.34,625l13.37-8.69Z" transform="translate(-138.23 -509.09)"/><path class="cls-3" d="M872.38,625.93H835.81l-6.06,14.17H812.61l32.8-80h17.25l-21.14,51.54h25l-11.31-27.43,12.91-11.08,27.31,67H878.32Z" transform="translate(-138.23 -509.09)"/><path class="cls-3" d="M948.06,559.19l16.23,33-12,10.08-23-43Zm34.7,0h19l-28.24,52.46v26H957.29v-26l-.11-.23,8.23-16.92Z" transform="translate(-138.23 -509.09)"/></svg>