<?xml version="1.0" encoding="utf-8"?>
<!-- Generator: Adobe Illustrator 23.0.1, SVG Export Plug-In . SVG Version: 6.00 Build 0)  -->
<svg version="1.1" id="Layer_1" xmlns="http://www.w3.org/2000/svg" xmlns:xlink="http://www.w3.org/1999/xlink" x="0px" y="0px"
	 viewBox="0 0 616 616" style="enable-background:new 0 0 616 616;" xml:space="preserve">
<style type="text/css">
	.st0{fill:#1E1E1E;}
	.st1{fill:#00FF2B;}
</style>
<title>menu</title>
<circle class="st0" cx="308" cy="308" r="308"/>
<path class="st1" d="M442.7,246.6H172.6c-7.5-0.3-13.3-6.6-13-14c0.3-7.1,5.9-12.7,13-13h270.2c7.5,0.3,13.3,6.6,13,14
	C455.4,240.7,449.8,246.3,442.7,246.6z"/>
<path class="st1" d="M442.7,327.7H172.6c-7.5,0.3-13.7-5.5-14-13c-0.3-7.5,5.5-13.7,13-14c0.3,0,0.7,0,1,0h270.2
	c7.5-0.3,13.7,5.5,14,13c0.3,7.5-5.5,13.7-13,14C443.4,327.7,443.1,327.7,442.7,327.7z"/>
<path class="st1" d="M442.7,408.7H172.6c-7.5,0.3-13.7-5.5-14-13c-0.3-7.5,5.5-13.7,13-14c0.3,0,0.7,0,1,0h270.2
	c7.5-0.3,13.7,5.5,14,13c0.3,7.5-5.5,13.7-13,14C443.4,408.7,443.1,408.7,442.7,408.7z"/>
</svg>
