<svg id="Layer_1" data-name="Layer 1" xmlns="http://www.w3.org/2000/svg" xmlns:xlink="http://www.w3.org/1999/xlink" viewBox="0 0 521.82 182.95"><defs><linearGradient id="linear-gradient" y1="91.47" x2="521.82" y2="91.47" gradientUnits="userSpaceOnUse"><stop offset="0" stop-color="lime"/><stop offset="1" stop-color="#009245"/></linearGradient></defs><title>tutero</title><rect width="521.82" height="182.95" style="fill:url(#linear-gradient)"/><path d="M302.06,152.44a20.17,20.17,0,0,0,1.66,8.14,20.88,20.88,0,0,0,11.11,11.1,20,20,0,0,0,8.14,1.66v4.42a21.51,21.51,0,0,1-9.75-1.86,26.83,26.83,0,0,1-13.72-13.71,21.39,21.39,0,0,1-1.87-9.75v-44.5l4.43-4.43v23.91H323v4.42H302.06Z" transform="translate(-166.18 -47.74)" style="fill:#1e1e1e;stroke:#1e1e1e;stroke-miterlimit:10"/><path d="M296,98.82a3.78,3.78,0,0,0-1.06.06,4.8,4.8,0,0,0-1.64.58,4.48,4.48,0,0,0-1.57,6.14,4.62,4.62,0,0,0,.84,1,.28.28,0,0,0,.4,0,.27.27,0,0,0,0-.39,3.92,3.92,0,0,1,3.49-6.74l.87.14a.31.31,0,0,0,.13-.17v-.12a.36.36,0,0,0,0-.09A3.73,3.73,0,0,0,296,98.82Z" transform="translate(-166.18 -47.74)" style="fill:#1e1e1e;stroke:#1e1e1e;stroke-miterlimit:10"/><path d="M294,95.22a6.12,6.12,0,0,0-1.6.07,7.58,7.58,0,0,0-2.48.88,6.74,6.74,0,0,0-2.36,9.23,6.58,6.58,0,0,0,1.27,1.56.44.44,0,0,0,.61,0,.43.43,0,0,0,0-.61h0a5.89,5.89,0,0,1,5.25-10.13l1.3.2a.47.47,0,0,0,.19-.25.61.61,0,0,0,0-.19.78.78,0,0,0-.05-.14A5.64,5.64,0,0,0,294,95.22Z" transform="translate(-166.18 -47.74)" style="fill:#1e1e1e;stroke:#1e1e1e;stroke-miterlimit:10"/><path d="M291.76,91.85a7.26,7.26,0,0,0-2.08.11,9.36,9.36,0,0,0-3.24,1.14,8.78,8.78,0,0,0-3.09,12,9.19,9.19,0,0,0,1.68,2,.55.55,0,0,0,.77-.12.56.56,0,0,0,0-.69,7.68,7.68,0,0,1,6.83-13.2l1.71.26a.51.51,0,0,0,.24-.33.49.49,0,0,0,0-.24.44.44,0,0,0-.07-.19A7.39,7.39,0,0,0,291.76,91.85Z" transform="translate(-166.18 -47.74)" style="fill:#1e1e1e;stroke:#1e1e1e;stroke-miterlimit:10"/><path d="M333,128.34h4.63v24.53a19.1,19.1,0,0,0,1.69,8,21.31,21.31,0,0,0,4.65,6.6,22.29,22.29,0,0,0,6.92,4.53,21.61,21.61,0,0,0,8.51,1.68h.32a21.56,21.56,0,0,0,8.5-1.68,22.46,22.46,0,0,0,6.93-4.53,22.15,22.15,0,0,0,4.7-6.6,18.63,18.63,0,0,0,1.74-8l-.1-24.53h4.75v24.53a20.84,20.84,0,0,1-2,9.52,25.88,25.88,0,0,1-5.76,7.88,27.82,27.82,0,0,1-8.45,5.36,26.32,26.32,0,0,1-10.1,2h-.74a26.3,26.3,0,0,1-10.09-2,27.87,27.87,0,0,1-8.46-5.36,25.88,25.88,0,0,1-5.76-7.88,20,20,0,0,1-1.9-9.51Z" transform="translate(-166.18 -47.74)" style="fill:#1e1e1e;stroke:#1e1e1e;stroke-miterlimit:10"/><path d="M398.48,152.68a18.47,18.47,0,0,0,1.74,8,20.73,20.73,0,0,0,4.7,6.47,22.21,22.21,0,0,0,7,4.39,22.61,22.61,0,0,0,8.6,1.65v4.33a24.06,24.06,0,0,1-10.26-1.82,28.44,28.44,0,0,1-8.56-5.46,26.33,26.33,0,0,1-5.86-8,19.82,19.82,0,0,1-1.94-9.55V109l4.65-4.34v23.45h22v4.33h-22Z" transform="translate(-166.18 -47.74)" style="fill:#1e1e1e;stroke:#1e1e1e;stroke-miterlimit:10"/><path d="M474,162.47a24.5,24.5,0,0,1-5.82,8,25.67,25.67,0,0,1-8.57,5.42,28.24,28.24,0,0,1-10.25,1.87c-.56,0-1.11,0-1.63,0s-1.08-.08-1.64-.15a27.11,27.11,0,0,1-16.54-8.22,25.31,25.31,0,0,1-4.92-7.54,22.48,22.48,0,0,1-1.79-8.86,22.83,22.83,0,0,1,2-9.5,25.34,25.34,0,0,1,5.7-8,28.58,28.58,0,0,1,8.62-5.37,27.34,27.34,0,0,1,10.19-1.94,27.65,27.65,0,0,1,10.25,1.94,26.78,26.78,0,0,1,8.57,5.37l3.27,3.05-18.28,17-6.44-.1,18.17-16.94a22.37,22.37,0,0,0-7-4.43,22.74,22.74,0,0,0-8.51-1.58A22.34,22.34,0,0,0,434,138.54a21.93,21.93,0,0,0-4.7,6.47,19.06,19.06,0,0,0-.26,15.32,20.28,20.28,0,0,0,4.07,6.15,22.52,22.52,0,0,0,13.58,6.75c.49.07.95.12,1.37.15s.88.05,1.37.05a22.78,22.78,0,0,0,15.55-6,20.73,20.73,0,0,0,4.7-6.47,18.66,18.66,0,0,0,1.74-8H476A22.89,22.89,0,0,1,474,162.47Z" transform="translate(-166.18 -47.74)" style="fill:#1e1e1e;stroke:#1e1e1e;stroke-miterlimit:10"/><path d="M480.73,153.06a19.66,19.66,0,0,1,1.94-9.45,26.19,26.19,0,0,1,5.83-8,27.39,27.39,0,0,1,8.61-5.42,25.83,25.83,0,0,1,10.2-1.88v4.34a22.82,22.82,0,0,0-15.55,6,21.17,21.17,0,0,0-4.7,6.47,18.41,18.41,0,0,0-1.74,7.93V177.7h-4.59Z" transform="translate(-166.18 -47.74)" style="fill:#1e1e1e;stroke:#1e1e1e;stroke-miterlimit:10"/><path d="M536.43,177.89a24.22,24.22,0,0,1-10.37-1.82,28.21,28.21,0,0,1-8.42-5.47,25.87,25.87,0,0,1-5.75-8,22.46,22.46,0,0,1,0-19.06,25.46,25.46,0,0,1,5.75-7.93,27.63,27.63,0,0,1,37.48,0,25.52,25.52,0,0,1,5.77,7.93,22.6,22.6,0,0,1,0,19.06,25.94,25.94,0,0,1-5.77,8,27.64,27.64,0,0,1-8.5,5.47A24.36,24.36,0,0,1,536.43,177.89Zm0-45.34a22.82,22.82,0,0,0-15.55,6,21.08,21.08,0,0,0-4.71,6.48,19.15,19.15,0,0,0,0,16,20.94,20.94,0,0,0,4.71,6.58,22.78,22.78,0,0,0,15.55,6,22.39,22.39,0,0,0,8.51-1.62,23.46,23.46,0,0,0,6.94-4.39,20.34,20.34,0,0,0,4.75-6.47,19.09,19.09,0,0,0,0-16,20.34,20.34,0,0,0-4.75-6.47,23.32,23.32,0,0,0-7-4.39,22.14,22.14,0,0,0-8.47-1.68Z" transform="translate(-166.18 -47.74)" style="fill:#1e1e1e;stroke:#1e1e1e;stroke-miterlimit:10"/></svg>