<svg id="Layer_1" data-name="Layer 1" xmlns="http://www.w3.org/2000/svg" xmlns:xlink="http://www.w3.org/1999/xlink" viewBox="0 0 799.97 278.49"><defs><linearGradient id="linear-gradient" x1="215.58" y1="-303.71" x2="1015.55" y2="-303.71" gradientTransform="matrix(1, 0, 0, -1, -215.58, -164.51)" gradientUnits="userSpaceOnUse"><stop offset="0" stop-color="lime"/><stop offset="1" stop-color="#009245"/></linearGradient></defs><title>tuterolive</title><path d="M45.26,0C20.26,0,0,21.51,0,48V230.4c0,26.53,20.26,48,45.26,48H559.31L439.88,0Z" style="fill:url(#linear-gradient)"/><path d="M754.71,0H439.88L559.31,278.49h195.4c25,0,45.26-21.51,45.26-48V48C800,21.49,779.71,0,754.71,0Z" style="fill:#1e1e1e"/><path d="M104.55,142.13a31.07,31.07,0,0,0,2.56,12.57,32.34,32.34,0,0,0,17.16,17.14,31.07,31.07,0,0,0,12.57,2.56v6.82a33.19,33.19,0,0,1-15.06-2.87,41.45,41.45,0,0,1-21.19-21.17,33.29,33.29,0,0,1-2.88-15.05V73.41l6.84-6.83v36.91h32.29v6.83H104.55Z" style="fill:#1e1e1e;stroke:#1e1e1e;stroke-miterlimit:10;stroke-width:4.23000001907349px"/><path d="M95.2,59.34a6,6,0,0,0-1.64.08,7.72,7.72,0,0,0-2.54.9,6.93,6.93,0,0,0-2.43,9.48,7,7,0,0,0,1.31,1.6.44.44,0,0,0,.62,0,.45.45,0,0,0,0-.61,6.05,6.05,0,0,1,5.38-10.4l1.34.21a.41.41,0,0,0,.2-.26.54.54,0,0,0,0-.18.39.39,0,0,0-.06-.15A6,6,0,0,0,95.2,59.34Z" style="fill:#1e1e1e;stroke:#1e1e1e;stroke-miterlimit:10;stroke-width:0.920000016689301px"/><path d="M92.13,53.77a9.22,9.22,0,0,0-2.46.12,11.32,11.32,0,0,0-3.83,1.36,10.4,10.4,0,0,0-1.68,16.66.67.67,0,1,0,.88-1h0a9.1,9.1,0,0,1,8.1-15.64l2,.32a.75.75,0,0,0,.3-.4.66.66,0,0,0,0-.28.83.83,0,0,0-.08-.22A8.69,8.69,0,0,0,92.13,53.77Z" style="fill:#1e1e1e;stroke:#1e1e1e;stroke-miterlimit:10;stroke-width:0.920000016689301px"/><path d="M88.65,48.57a11.58,11.58,0,0,0-3.22.17,14.64,14.64,0,0,0-5,1.76,13.55,13.55,0,0,0-4.76,18.56,13.28,13.28,0,0,0,2.58,3.16A.85.85,0,0,0,79.39,71,11.86,11.86,0,0,1,89.94,50.59l2.64.41a.84.84,0,0,0,.38-.52.73.73,0,0,0,0-.36.79.79,0,0,0-.11-.29A11.68,11.68,0,0,0,88.65,48.57Z" style="fill:#1e1e1e;stroke:#1e1e1e;stroke-miterlimit:10;stroke-width:0.920000016689301px"/><path d="M152.27,104.92h7.15v37.87A29.7,29.7,0,0,0,162,155.11a32.94,32.94,0,0,0,7.18,10.19,34.54,34.54,0,0,0,10.69,7A33.3,33.3,0,0,0,193,174.89h.49a33.43,33.43,0,0,0,13.13-2.59,34.54,34.54,0,0,0,10.69-7,34,34,0,0,0,7.26-10.19,28.65,28.65,0,0,0,2.69-12.32l-.16-37.87h7.34v37.87a32.29,32.29,0,0,1-3.06,14.7,39.79,39.79,0,0,1-8.89,12.16,42.84,42.84,0,0,1-13.05,8.29,40.84,40.84,0,0,1-15.59,3h-1.14a40.79,40.79,0,0,1-15.58-3,42.89,42.89,0,0,1-13.06-8.29,39.66,39.66,0,0,1-8.9-12.16,30.87,30.87,0,0,1-2.94-14.68Z" style="fill:#1e1e1e;stroke:#1e1e1e;stroke-miterlimit:10;stroke-width:2.82999992370606px"/><path d="M253.42,142.49a28.6,28.6,0,0,0,2.69,12.31,32,32,0,0,0,7.26,10,34.59,34.59,0,0,0,10.77,6.77,34.94,34.94,0,0,0,13.28,2.55v6.69A37.17,37.17,0,0,1,271.59,178a44,44,0,0,1-13.22-8.44,40.68,40.68,0,0,1-9.05-12.32,30.56,30.56,0,0,1-3-14.75V75.12l7.18-6.7v36.2h33.92v6.69h-34Z" style="fill:#1e1e1e;stroke:#1e1e1e;stroke-miterlimit:10;stroke-width:2.82999992370606px"/><path d="M370.1,157.62a38,38,0,0,1-9,12.39,39.35,39.35,0,0,1-13.22,8.37,43.9,43.9,0,0,1-15.83,2.89c-.87,0-1.71,0-2.52-.08s-1.66-.13-2.53-.23a41.79,41.79,0,0,1-25.54-12.7,38.81,38.81,0,0,1-7.59-11.63,34.82,34.82,0,0,1-2.77-13.69,35.3,35.3,0,0,1,3.1-14.67,39.19,39.19,0,0,1,8.81-12.4,44,44,0,0,1,13.3-8.28,42,42,0,0,1,15.74-3,42.48,42.48,0,0,1,15.83,3,41.49,41.49,0,0,1,13.22,8.28l5.06,4.72L337.93,146.9l-9.95-.16L356,120.59a34.52,34.52,0,0,0-10.85-6.85,35.4,35.4,0,0,0-13.14-2.43,34.44,34.44,0,0,0-23.82,9.35,33.64,33.64,0,0,0-7.26,10,28.3,28.3,0,0,0-2.69,12.24,28.67,28.67,0,0,0,2.28,11.41,31.84,31.84,0,0,0,6.29,9.5,34.1,34.1,0,0,0,9.38,6.92,34.54,34.54,0,0,0,11.58,3.5c.76.1,1.47.18,2.12.23s1.36.07,2.12.07a35.18,35.18,0,0,0,24-9.27,32,32,0,0,0,7.26-10A28.65,28.65,0,0,0,366,142.94h7.18A35.51,35.51,0,0,1,370.1,157.62Z" style="fill:#1e1e1e;stroke:#1e1e1e;stroke-miterlimit:10;stroke-width:2.82999992370606px"/><path d="M380.42,143.09a30.31,30.31,0,0,1,3-14.6,40.77,40.77,0,0,1,9-12.31,42.52,42.52,0,0,1,13.29-8.37,40.06,40.06,0,0,1,15.75-2.89v6.69a35.24,35.24,0,0,0-24,9.28,32.47,32.47,0,0,0-7.26,10,28.3,28.3,0,0,0-2.69,12.24v38h-7.09Z" style="fill:#1e1e1e;stroke:#1e1e1e;stroke-miterlimit:10;stroke-width:2.82999992370606px"/><path d="M466.42,181.42a37.32,37.32,0,0,1-16-2.81,43.15,43.15,0,0,1-13-8.45,40,40,0,0,1-8.89-12.39,34.74,34.74,0,0,1,0-29.43,39.24,39.24,0,0,1,8.89-12.24,42.61,42.61,0,0,1,57.87,0,39.43,39.43,0,0,1,8.9,12.24,34.82,34.82,0,0,1,0,29.43,39.85,39.85,0,0,1-8.9,12.39,42.76,42.76,0,0,1-13.13,8.45A37.37,37.37,0,0,1,466.42,181.42Zm0-70a35.19,35.19,0,0,0-24,9.28,32.06,32.06,0,0,0-7.27,10,29.51,29.51,0,0,0,0,24.63,32,32,0,0,0,7.27,10.16,35.19,35.19,0,0,0,24,9.28,34.39,34.39,0,0,0,13.14-2.51,36.31,36.31,0,0,0,10.72-6.77,31.51,31.51,0,0,0,7.34-10,29.51,29.51,0,0,0,0-24.63,31.51,31.51,0,0,0-7.34-10,36,36,0,0,0-10.77-6.77,34.38,34.38,0,0,0-13.09-2.6Z" style="fill:#1e1e1e;stroke:#1e1e1e;stroke-miterlimit:10;stroke-width:2.82999992370606px"/><polygon points="524.93 54.46 511.25 132.06 516.89 145.12 534.3 46.34 524.93 54.46" style="fill:#fff"/><polygon points="554.27 46.17 544.9 54.29 542.69 66.81 550.63 66.81 554.27 46.17" style="fill:#fff"/><polygon points="546.84 88.34 538.9 88.34 525.4 164.85 530.39 176.4 531.31 176.4 546.84 88.34" style="fill:#fff"/><polygon points="577.72 176.4 586.37 176.4 640.62 91.87 634.36 88.34 583.75 167.22 561.13 88.34 553.21 92.22 577.72 176.4" style="fill:#fff"/><path d="M720.84,132.29a40.83,40.83,0,0,1-5.42,14.29,48.25,48.25,0,0,1-9.91,11.64,47.28,47.28,0,0,1-13,7.86A39.16,39.16,0,0,1,677.7,169q-1.23,0-2.28-.09c-.69-.06-1.44-.15-2.24-.26a30.37,30.37,0,0,1-11.82-4.06,29,29,0,0,1-8.73-8,30,30,0,0,1-4.85-11,33.48,33.48,0,0,1-.13-13.23,40.15,40.15,0,0,1,5.41-14.21A50,50,0,0,1,663,106.49a46.76,46.76,0,0,1,13-7.94,38.71,38.71,0,0,1,14.72-2.91,32.63,32.63,0,0,1,13.7,2.82,28.91,28.91,0,0,1,10.34,8L679,136.81l10.74.17,35.91-30.52L721.16,101a34.9,34.9,0,0,0-12.6-9.62,38.93,38.93,0,0,0-16.5-3.44,47.19,47.19,0,0,0-17.64,3.44,56.45,56.45,0,0,0-28.14,24,50.06,50.06,0,0,0-6.36,17,40.61,40.61,0,0,0,.2,15.88,36.87,36.87,0,0,0,5.83,13.5,34.78,34.78,0,0,0,10.47,9.74,36.58,36.58,0,0,0,14.48,4.94c.92.12,1.81.2,2.68.26s1.78.09,2.72.09A48.77,48.77,0,0,0,694,173.43a53.49,53.49,0,0,0,16-9.7,57,57,0,0,0,12.24-14.39,50.33,50.33,0,0,0,6.35-17Z" style="fill:#fff"/></svg>