<svg id="Layer_1" data-name="Layer 1" xmlns="http://www.w3.org/2000/svg" viewBox="0 0 344.57 344.58"><defs><style>.cls-1{stroke:#000;stroke-miterlimit:10;stroke-width:11.3px;}.cls-2{fill:none;}</style></defs><title>cog</title><path class="cls-1" d="M385.71,268.16A53.25,53.25,0,0,1,414.16,221a160.76,160.76,0,0,0-11.05-26.81,53.3,53.3,0,0,1-67.76-67.76,158,158,0,0,0-26.81-11,53.3,53.3,0,0,1-94.29,0,159,159,0,0,0-26.81,11,53.3,53.3,0,0,1-67.76,67.76,158.36,158.36,0,0,0-11,26.81,53.3,53.3,0,0,1,0,94.29,158.7,158.7,0,0,0,11,26.81,53.3,53.3,0,0,1,67.76,67.76,159.23,159.23,0,0,0,26.81,11.05,53.29,53.29,0,0,1,94.29,0,160.41,160.41,0,0,0,26.81-11.05,53.3,53.3,0,0,1,67.76-67.76,158.07,158.07,0,0,0,11.05-26.81A53.22,53.22,0,0,1,385.71,268.16ZM261.4,321.43a53.27,53.27,0,1,1,53.27-53.27A53.33,53.33,0,0,1,261.4,321.43Z" transform="translate(-89.09 -95.87)"/><path d="M427.62,301.81a35.5,35.5,0,0,1,0-67.3,8.89,8.89,0,0,0,5.77-10.62,177.32,177.32,0,0,0-18.81-45.53,8.88,8.88,0,0,0-11.91-3.3,35.53,35.53,0,0,1-48.19-48.19A8.9,8.9,0,0,0,351.17,115a176.59,176.59,0,0,0-45.52-18.8A8.9,8.9,0,0,0,295,101.92a35.5,35.5,0,0,1-67.3,0,8.88,8.88,0,0,0-10.62-5.77A177.09,177.09,0,0,0,171.58,115a8.91,8.91,0,0,0-3.3,11.92,35.54,35.54,0,0,1-48.19,48.19,8.88,8.88,0,0,0-11.91,3.3,176.68,176.68,0,0,0-18.81,45.53,8.89,8.89,0,0,0,5.77,10.62,35.5,35.5,0,0,1,0,67.3,8.87,8.87,0,0,0-5.77,10.61A177,177,0,0,0,108.18,358a8.88,8.88,0,0,0,11.91,3.3,35.54,35.54,0,0,1,48.19,48.2,8.89,8.89,0,0,0,3.3,11.91,176.8,176.8,0,0,0,45.53,18.8,8.5,8.5,0,0,0,2.21.29,8.91,8.91,0,0,0,8.41-6.06,35.5,35.5,0,0,1,67.3,0,8.86,8.86,0,0,0,10.62,5.77,176.88,176.88,0,0,0,45.52-18.8,8.89,8.89,0,0,0,3.31-11.91,35.54,35.54,0,0,1,48.19-48.2,8.88,8.88,0,0,0,11.91-3.3,177,177,0,0,0,18.81-45.53A8.88,8.88,0,0,0,427.62,301.81Zm-24.51,40.3a53.3,53.3,0,0,0-67.76,67.76,160.41,160.41,0,0,1-26.81,11.05,53.29,53.29,0,0,0-94.29,0,159.23,159.23,0,0,1-26.81-11.05,53.3,53.3,0,0,0-67.76-67.76,158.7,158.7,0,0,1-11-26.81,53.3,53.3,0,0,0,0-94.29,158.36,158.36,0,0,1,11-26.81,53.3,53.3,0,0,0,67.76-67.76,159,159,0,0,1,26.81-11,53.3,53.3,0,0,0,94.29,0,158,158,0,0,1,26.81,11,53.3,53.3,0,0,0,67.76,67.76A160.76,160.76,0,0,1,414.16,221a53.29,53.29,0,0,0,0,94.29A158.07,158.07,0,0,1,403.11,342.11Z" transform="translate(-89.09 -95.87)"/><polygon points="130.24 344.58 130.23 344.58 130.22 344.58 130.24 344.58"/><line class="cls-2" x1="35.45" y1="281.11" x2="294.46" y2="20.46"/></svg>