<svg id="Layer_1" data-name="Layer 1" xmlns="http://www.w3.org/2000/svg" viewBox="0 0 385.32 391.24"><title>customize</title><path d="M328.13,133.21a36,36,0,0,1,4.27-17,8.93,8.93,0,0,0-3.27-11.91A174.44,174.44,0,0,0,284,85.49a8.8,8.8,0,0,0-10.52,5.77,35.06,35.06,0,0,1-66.66,0,8.78,8.78,0,0,0-10.51-5.77,174.65,174.65,0,0,0-45.1,18.81A8.94,8.94,0,0,0,148,116.21a35.89,35.89,0,0,1,4.28,17,35.39,35.39,0,0,1-35.18,35.51,34.87,34.87,0,0,1-16.83-4.32,8.76,8.76,0,0,0-11.8,3.31,177.89,177.89,0,0,0-18.63,45.52,8.91,8.91,0,0,0,5.72,10.62,35.61,35.61,0,0,1,0,67.3,8.9,8.9,0,0,0-5.72,10.62A178.4,178.4,0,0,0,88.45,347.3a8.77,8.77,0,0,0,11.8,3.3,34.91,34.91,0,0,1,42.69,7.15l12.38-12.57a52.27,52.27,0,0,0-55.47-13.72,159.21,159.21,0,0,1-10.94-26.82,53.53,53.53,0,0,0,0-94.28,158.43,158.43,0,0,1,10.94-26.81,52.78,52.78,0,0,0,17.23,2.91c29.09,0,52.76-23.9,52.76-53.27a54,54,0,0,0-2.88-17.4,155.43,155.43,0,0,1,26.56-11.05,52.54,52.54,0,0,0,93.38,0,154.77,154.77,0,0,1,26.56,11.05,54,54,0,0,0-2.88,17.4,53.31,53.31,0,0,0,15.91,38.07l12.36-12.55A35.59,35.59,0,0,1,328.13,133.21Z" transform="translate(-69.55 -85.21)"/><polygon points="128.98 344.58 129 344.58 128.99 344.58 128.98 344.58"/><path d="M439.89,145.05a50.74,50.74,0,0,0-72.27,0l-219.1,221.2a8.38,8.38,0,0,0-2,3.15l-34.38,95.43a8.83,8.83,0,0,0,2,9.1,8.56,8.56,0,0,0,6.07,2.52,8.93,8.93,0,0,0,3-.51l94.52-34.71a8.92,8.92,0,0,0,3.12-2L439.89,218a51.92,51.92,0,0,0,0-73ZM210,425.59l-75.4,27.67L162,377.13l190.17-192,48,48.46ZM427.75,205.76l-15.43,15.58-48-48.45,15.37-15.53a33.74,33.74,0,0,1,48,0,34.53,34.53,0,0,1,.06,48.4Z" transform="translate(-69.55 -85.21)"/></svg>