<svg id="Layer_1" data-name="Layer 1" xmlns="http://www.w3.org/2000/svg" viewBox="0 0 726.65 636.49"><defs><style>.cls-1,.cls-2,.cls-3,.cls-4{fill:#1e1e1e;}.cls-2,.cls-3,.cls-4{stroke:#1e1e1e;}.cls-2,.cls-3,.cls-4,.cls-5{stroke-miterlimit:10;}.cls-2{stroke-width:4.23px;}.cls-3{stroke-width:0.92px;}.cls-4{stroke-width:2.83px;}.cls-5{fill:none;stroke:#fff;stroke-width:3.62px;}.cls-6{fill:#fff;}</style></defs><path class="cls-1" d="M967.68,409.06H652.84L772.28,687.49h195.4c25,0,45.26-21.51,45.26-48V457.1C1012.94,430.57,992.68,409.06,967.68,409.06Z" transform="translate(-286.29 -409.06)"/><path class="cls-2" d="M317.51,551.19a31.15,31.15,0,0,0,2.57,12.56,32.25,32.25,0,0,0,17.15,17.14,31.24,31.24,0,0,0,12.58,2.56v6.83a33.28,33.28,0,0,1-15.06-2.87,41.49,41.49,0,0,1-21.2-21.18,33.2,33.2,0,0,1-2.87-15V482.46l6.83-6.82v36.92h32.3v6.82h-32.3Z" transform="translate(-286.29 -409.06)"/><path class="cls-3" d="M308.17,468.39a6,6,0,0,0-1.64.09,7.32,7.32,0,0,0-2.55.9,6.91,6.91,0,0,0-1.11,11.07.43.43,0,1,0,.58-.64,6.05,6.05,0,0,1,5.39-10.39l1.34.21a.45.45,0,0,0,.2-.27.35.35,0,0,0,0-.18.32.32,0,0,0-.05-.14A5.64,5.64,0,0,0,308.17,468.39Z" transform="translate(-286.29 -409.06)"/><path class="cls-3" d="M305.1,462.82a8.79,8.79,0,0,0-2.46.13,11.53,11.53,0,0,0-3.84,1.35A10.41,10.41,0,0,0,297.13,481a.65.65,0,0,0,.87-1,9.1,9.1,0,0,1,8.1-15.63l2,.31a.63.63,0,0,0,.3-.4.56.56,0,0,0,0-.27.46.46,0,0,0-.08-.22A8.66,8.66,0,0,0,305.1,462.82Z" transform="translate(-286.29 -409.06)"/><path class="cls-3" d="M301.61,457.63a12,12,0,0,0-3.21.16,14.79,14.79,0,0,0-5,1.77,13.56,13.56,0,0,0-2.19,21.72.85.85,0,0,0,1.2-.06.84.84,0,0,0-.06-1.2,11.87,11.87,0,0,1,10.56-20.38l2.63.41a.84.84,0,0,0,.39-.52.81.81,0,0,0,0-.36.88.88,0,0,0-.1-.28A11.2,11.2,0,0,0,301.61,457.63Z" transform="translate(-286.29 -409.06)"/><path class="cls-4" d="M365.24,514h7.18v37.87A29.53,29.53,0,0,0,375,564.16a32.66,32.66,0,0,0,7.18,10.19,34.63,34.63,0,0,0,10.69,7A33.46,33.46,0,0,0,406,583.93h.49a33.48,33.48,0,0,0,13.14-2.58,34.63,34.63,0,0,0,10.69-7,34.09,34.09,0,0,0,7.26-10.19,28.84,28.84,0,0,0,2.69-12.31L440.14,514h7.34v37.87a32.38,32.38,0,0,1-3.1,14.67,39.62,39.62,0,0,1-8.89,12.17A42.77,42.77,0,0,1,422.43,587a40.66,40.66,0,0,1-15.58,3h-1.14a40.71,40.71,0,0,1-15.59-3,42.61,42.61,0,0,1-13.05-8.28,39.46,39.46,0,0,1-8.89-12.17,30.75,30.75,0,0,1-2.94-14.67Z" transform="translate(-286.29 -409.06)"/><path class="cls-4" d="M466.4,551.54a28.74,28.74,0,0,0,2.7,12.32,32,32,0,0,0,7.26,10,35.3,35.3,0,0,0,24,9.27v6.69a37.07,37.07,0,0,1-15.82-2.81,43.73,43.73,0,0,1-13.22-8.44,40.62,40.62,0,0,1-9.06-12.32,30.66,30.66,0,0,1-3-14.75V484.17l7.18-6.69v36.19h33.94v6.7H466.4Z" transform="translate(-286.29 -409.06)"/><path class="cls-4" d="M583.07,566.67a38.29,38.29,0,0,1-9,12.4,39.26,39.26,0,0,1-13.22,8.36,43.62,43.62,0,0,1-15.83,2.89c-.87,0-1.71,0-2.53-.08s-1.66-.12-2.53-.22a41.79,41.79,0,0,1-25.53-12.7,39,39,0,0,1-7.59-11.64A34.63,34.63,0,0,1,504.1,552a35.48,35.48,0,0,1,3.1-14.68A39.23,39.23,0,0,1,516,524.93a43.72,43.72,0,0,1,13.3-8.29,41.92,41.92,0,0,1,15.74-3,42.65,42.65,0,0,1,15.83,3,41.73,41.73,0,0,1,13.22,8.29l5.06,4.71L550.93,556l-10-.15L569,529.64a34.42,34.42,0,0,0-10.85-6.84,35.28,35.28,0,0,0-13.14-2.43,34.35,34.35,0,0,0-23.82,9.35,33.17,33.17,0,0,0-7.26,10A28.3,28.3,0,0,0,511.28,552a28.65,28.65,0,0,0,2.28,11.4,31.86,31.86,0,0,0,6.28,9.51,34.79,34.79,0,0,0,21,10.41c.76.11,1.47.18,2.12.23s1.36.08,2.12.08a35.24,35.24,0,0,0,24-9.28,32.19,32.19,0,0,0,7.26-10A28.91,28.91,0,0,0,579,552h7.18A35.4,35.4,0,0,1,583.07,566.67Z" transform="translate(-286.29 -409.06)"/><path class="cls-4" d="M593.35,552.15a30.31,30.31,0,0,1,3-14.6,40.71,40.71,0,0,1,9-12.32,42.5,42.5,0,0,1,13.3-8.36A39.91,39.91,0,0,1,634.47,514v6.69a35.24,35.24,0,0,0-24,9.28,32.48,32.48,0,0,0-7.26,10,28.37,28.37,0,0,0-2.69,12.24v38h-7.18Z" transform="translate(-286.29 -409.06)"/><path class="cls-4" d="M679.34,590.47a37.17,37.17,0,0,1-15.91-2.81,43,43,0,0,1-13-8.44,39.87,39.87,0,0,1-8.9-12.4,34.82,34.82,0,0,1,0-29.42,39.2,39.2,0,0,1,8.9-12.24,42.63,42.63,0,0,1,13-8.29,42.94,42.94,0,0,1,31.74,0,42.42,42.42,0,0,1,13.13,8.29,39.17,39.17,0,0,1,8.89,12.24,34.72,34.72,0,0,1,0,29.42,39.84,39.84,0,0,1-8.89,12.4,42.82,42.82,0,0,1-13.13,8.44A37.27,37.27,0,0,1,679.34,590.47Zm0-70a35.3,35.3,0,0,0-24,9.27,32.19,32.19,0,0,0-7.26,10,29.56,29.56,0,0,0,0,24.64,32,32,0,0,0,7.26,10,35.24,35.24,0,0,0,24,9.28,34.34,34.34,0,0,0,13.13-2.51,36,36,0,0,0,10.77-6.77,31.52,31.52,0,0,0,7.35-10,29.56,29.56,0,0,0,0-24.64,31.67,31.67,0,0,0-7.35-10A36.12,36.12,0,0,0,692.47,523,34.15,34.15,0,0,0,679.34,520.52Z" transform="translate(-286.29 -409.06)"/><line class="cls-5" x1="236.21" y1="635.12" x2="242.96" y2="629.33"/><polygon class="cls-6" points="451.6 54.46 437.92 132.06 443.56 145.12 460.98 46.34 451.6 54.46"/><polygon class="cls-6" points="480.94 46.17 471.57 54.29 469.36 66.81 477.3 66.81 480.94 46.17"/><polygon class="cls-6" points="473.51 88.34 465.57 88.34 452.07 164.85 457.06 176.4 457.98 176.4 473.51 88.34"/><polygon class="cls-6" points="504.39 176.4 513.03 176.4 567.29 91.87 561.03 88.34 510.42 167.22 487.8 88.34 479.88 92.22 504.39 176.4"/><path class="cls-6" d="M933.8,541.34a40.73,40.73,0,0,1-5.43,14.29,48,48,0,0,1-9.9,11.65,47.45,47.45,0,0,1-13,7.85A39.31,39.31,0,0,1,890.63,578c-.83,0-1.58,0-2.28-.08s-1.44-.15-2.25-.27a30.48,30.48,0,0,1-11.81-4.06,29,29,0,0,1-8.73-8,30,30,0,0,1-4.85-11,33.52,33.52,0,0,1-.14-13.23A40.34,40.34,0,0,1,866,527.13a49.66,49.66,0,0,1,9.91-11.64,46.64,46.64,0,0,1,13-7.94,38.54,38.54,0,0,1,14.71-2.91,32.38,32.38,0,0,1,13.71,2.82,28.85,28.85,0,0,1,10.33,7.94l-35.7,30.35,10.73.18,35.92-30.53-4.51-5.47a34.93,34.93,0,0,0-12.6-9.62,39.23,39.23,0,0,0-16.51-3.44,47.28,47.28,0,0,0-17.63,3.44,59.7,59.7,0,0,0-16.08,9.62,58.43,58.43,0,0,0-12.06,14.38,50.26,50.26,0,0,0-6.36,17,40.49,40.49,0,0,0,.2,15.88,37,37,0,0,0,5.82,13.5,34.92,34.92,0,0,0,10.54,9.79,36.51,36.51,0,0,0,14.48,4.94c.92.12,1.82.21,2.69.27s1.78.09,2.72.09A49.05,49.05,0,0,0,907,582.46a53.54,53.54,0,0,0,16-9.71,57.08,57.08,0,0,0,12.24-14.38,50.18,50.18,0,0,0,6.36-17Z" transform="translate(-286.29 -409.06)"/></svg>