<?xml version="1.0" encoding="utf-8"?>
<!-- Generator: Adobe Illustrator 23.0.1, SVG Export Plug-In . SVG Version: 6.00 Build 0)  -->
<svg version="1.1" id="Layer_1" xmlns="http://www.w3.org/2000/svg" xmlns:xlink="http://www.w3.org/1999/xlink" x="0px" y="0px"
	 viewBox="0 0 20 20" style="enable-background:new 0 0 20 20;" xml:space="preserve">
<style type="text/css">
	.st0{fill:#000000;}
</style>
<path class="st0" d="M209.6-192.6c-17-17-39.6-26.4-63.7-26.4s-46.7,9.4-63.7,26.4L-304,193.6c-1.6,1.6-2.8,3.5-3.5,5.5l-60.6,166.6
	c-2,5.5-0.6,11.7,3.5,15.9c2.9,2.9,6.8,4.4,10.7,4.4c1.7,0,3.5-0.3,5.2-0.9l166.6-60.6c2.1-0.8,4-2,5.5-3.5L209.6-65.2
	c17-17,26.4-39.6,26.4-63.7S226.6-175.6,209.6-192.6L209.6-192.6z M-195.6,297.2l-132.9,48.3l48.3-132.9L55-122.6L139.6-38
	C139.6-38-195.6,297.2-195.6,297.2z M188.2-86.6L161-59.4L76.4-144l27.1-27.1c11.3-11.3,26.3-17.5,42.3-17.5s31,6.2,42.3,17.5
	c11.3,11.3,17.5,26.3,17.5,42.3S199.4-97.9,188.2-86.6L188.2-86.6z"/>
</svg>
