<?xml version="1.0" encoding="iso-8859-1"?>
<!-- Generator: Adobe Illustrator 19.0.0, SVG Export Plug-In . SVG Version: 6.00 Build 0)  -->
<svg version="1.1" id="Layer_1" xmlns="http://www.w3.org/2000/svg" xmlns:xlink="http://www.w3.org/1999/xlink" x="0px" y="0px"
	 viewBox="0 0 248.235 248.235" style="enable-background:new 0 0 248.235 248.235;" xml:space="preserve">
<g>
	<g>
		<path d="M205.527,28.425h-38.035v-3.264C167.493,11.288,156.204,0,142.331,0h-36.427C92.029,0,80.743,11.288,80.743,25.162v3.264
			H42.708c-4.971,0-9,4.029-9,9v30.041c0,4.971,4.029,9,9,9h0.258l12.951,163.479c0.371,4.68,4.277,8.289,8.972,8.289h118.458
			c4.695,0,8.601-3.609,8.972-8.289L205.27,76.467h0.258c4.971,0,9-4.029,9-9V37.425C214.527,32.455,210.498,28.425,205.527,28.425z
			 M98.743,25.162c0-3.949,3.213-7.162,7.161-7.162h36.427c3.949,0,7.162,3.213,7.162,7.162v3.264h-50.75V25.162z M175.032,230.234
			h-10.73v-0.001l3.809-85.455c0.221-4.966-3.625-9.17-8.59-9.392c-4.965-0.212-9.171,3.625-9.392,8.59l-3.845,86.256h-13.166
			v-85.855c0-4.971-4.029-9-9-9s-9,4.029-9,9v85.855h-13.166l-3.845-86.256c-0.222-4.965-4.435-8.8-9.392-8.59
			c-4.965,0.222-8.812,4.426-8.59,9.392l3.809,85.455h-10.73L61.021,76.466h126.192L175.032,230.234z M196.528,58.466
			L196.528,58.466H51.708V46.425h144.82V58.466z"/>
	</g>
</g>
<g>
</g>
<g>
</g>
<g>
</g>
<g>
</g>
<g>
</g>
<g>
</g>
<g>
</g>
<g>
</g>
<g>
</g>
<g>
</g>
<g>
</g>
<g>
</g>
<g>
</g>
<g>
</g>
<g>
</g>
</svg>
